<svg id="圖層_1" data-name="圖層 1" xmlns="http://www.w3.org/2000/svg" xmlns:xlink="http://www.w3.org/1999/xlink" viewBox="0 0 647.51 459.56"><defs><style>.cls-1,.cls-19,.cls-36,.cls-37,.cls-7{fill:#fff;}.cls-2{fill:#ffda6a;}.cls-3{fill:#67b054;}.cls-19,.cls-20,.cls-24,.cls-3{stroke:#424242;}.cls-19,.cls-20,.cls-23,.cls-24,.cls-25,.cls-26,.cls-28,.cls-29,.cls-3,.cls-30,.cls-31,.cls-32,.cls-33,.cls-34,.cls-37,.cls-39,.cls-41,.cls-5{stroke-linecap:round;stroke-linejoin:round;}.cls-24,.cls-3,.cls-4,.cls-6{stroke-width:1.01px;}.cls-4{fill:#cecebc;}.cls-23,.cls-29,.cls-31,.cls-33,.cls-34,.cls-36,.cls-37,.cls-38,.cls-4,.cls-7,.cls-8,.cls-9{stroke:#000;}.cls-13,.cls-35,.cls-36,.cls-38,.cls-4,.cls-42,.cls-6,.cls-7,.cls-8,.cls-9{stroke-miterlimit:10;}.cls-13,.cls-20,.cls-23,.cls-25,.cls-26,.cls-28,.cls-30,.cls-32,.cls-38,.cls-39,.cls-41,.cls-5,.cls-6,.cls-8,.cls-9{fill:none;}.cls-25,.cls-26,.cls-28,.cls-35,.cls-42,.cls-5{stroke:#fff;}.cls-5{stroke-width:0.76px;}.cls-6{stroke:#a8a888;}.cls-7{stroke-width:0.87px;}.cls-23,.cls-8{stroke-width:0.44px;}.cls-9{stroke-width:1.59px;}.cls-10{fill:#2c5379;}.cls-11,.cls-24{fill:#46698a;}.cls-12{clip-path:url(#clip-path);}.cls-13{stroke:#c75924;stroke-width:11.62px;}.cls-14{fill:#c75924;}.cls-15{fill:#44201f;}.cls-16{fill:#5e3f3e;}.cls-17{clip-path:url(#clip-path-2);}.cls-18{fill:#bdbdbd;}.cls-19,.cls-20{stroke-width:0.72px;}.cls-21{fill:#ff7c6b;}.cls-22{fill:#5e5e5e;}.cls-25{stroke-width:0.5px;}.cls-26,.cls-31,.cls-33{stroke-width:0.53px;}.cls-27,.cls-34{fill:#a0a07a;}.cls-28,.cls-29,.cls-30{stroke-width:0.26px;}.cls-29,.cls-33{fill:#6e6e33;}.cls-30{stroke:#c7c79a;}.cls-31{fill:#343434;}.cls-32{stroke:#919191;stroke-width:0.79px;}.cls-34{stroke-width:0.5px;}.cls-35,.cls-42{fill:#345084;}.cls-35,.cls-41{stroke-width:0.87px;}.cls-36,.cls-37{stroke-width:0.87px;}.cls-38{stroke-width:0.72px;}.cls-39,.cls-41{stroke:#44201f;}.cls-39{stroke-width:2.96px;}.cls-40{fill:#ffab0e;}.cls-42{stroke-width:0.81px;}</style><clipPath id="clip-path"><path class="cls-1" d="M213.52,120.83a20.35,20.35,0,0,1,40.68,0h0v.39c0,.13,0,.25,0,.38s0,.25,0,.38v43.13H213.48V120.83Z"/></clipPath><clipPath id="clip-path-2"><rect class="cls-2" x="215.98" y="47.73" width="38.27" height="52.81" rx="18.33" transform="translate(470.22 148.27) rotate(-180)"/></clipPath></defs><title>P#官網專題</title><polygon class="cls-3" points="326.17 203.96 226.64 203.96 0 286.77 0 302.93 286.79 302.93 326.17 210.02 326.17 203.96"/><polygon class="cls-4" points="473.95 325.09 220.45 325.09 129.98 443.4 129.98 459.56 564.2 459.56 564.2 443.4 473.95 325.09"/><polyline class="cls-5" points="2.29 287.61 286.36 287.61 324.65 206.13"/><line class="cls-6" x1="559.67" y1="443.79" x2="135.46" y2="443.79"/><path class="cls-7" d="M235.46,113.35v32.4a7.16,7.16,0,0,1-7.16,7.16h0a7.17,7.17,0,0,1-7.16-7.16v-32.4"/><path class="cls-2" d="M277.43,138.17H269A7.93,7.93,0,0,0,269,154h8.21a1.88,1.88,0,0,0,1.27-3.26,1.87,1.87,0,0,0,.36-3,1.88,1.88,0,0,0,1-1.65,1.92,1.92,0,0,0-.39-1.15H284a1.88,1.88,0,0,0,0-3.75h-6.43a2.18,2.18,0,0,0,.28-.25,2.14,2.14,0,0,0,.64-1.58A1.12,1.12,0,0,0,277.43,138.17Z"/><rect class="cls-2" x="249.65" y="137.66" width="9.83" height="16.86" transform="translate(108.47 400.65) rotate(-90)"/><polyline class="cls-7" points="235.04 138.6 257.73 138.65 257.7 152.97 228.08 152.91"/><path d="M272.78,141.45a.26.26,0,0,1,.26-.26h-2.18a.26.26,0,0,0-.25.26,4.51,4.51,0,0,1-1.86,3.65.25.25,0,0,0-.1.21.23.23,0,0,0,.05.15.24.24,0,0,0,.35,0,5,5,0,0,0,2.06-3.81H273A.26.26,0,0,1,272.78,141.45Z"/><path d="M273.63,141.7h0Z"/><path d="M277.84,141.45a.26.26,0,0,0-.26-.26H273a.26.26,0,0,0-.26.26.26.26,0,0,0,.26.25h4.54A.26.26,0,0,0,277.84,141.45Z"/><rect class="cls-8" x="273" y="144.94" width="6.63" height="2.79" rx="1.4"/><rect class="cls-8" x="273" y="147.74" width="6.4" height="3.11" rx="1.45"/><rect class="cls-8" x="273" y="150.85" width="6.03" height="2.92" rx="1.36"/><path class="cls-9" d="M213.51,120.83a20.35,20.35,0,0,1,40.68,0h0v.39c0,.13,0,.25,0,.38s0,.25,0,.38v43.13H213.47V120.83Z"/><rect class="cls-10" x="232.38" y="172.33" width="11.9" height="75.38" transform="translate(476.66 420.04) rotate(-180)"/><circle class="cls-11" cx="233.85" cy="164.55" r="18.38"/><path class="cls-1" d="M213.52,120.83a20.35,20.35,0,0,1,40.68,0h0v.39c0,.13,0,.25,0,.38s0,.25,0,.38v43.13H213.48V120.83Z"/><g class="cls-12"><line class="cls-13" x1="252.24" y1="111.29" x2="208.64" y2="154.88"/></g><rect class="cls-11" x="215.47" y="168.68" width="11.9" height="79.03" transform="translate(442.83 416.39) rotate(-180)"/><circle class="cls-14" cx="208.1" cy="148.06" r="8.22"/><rect class="cls-14" x="199.88" y="148.06" width="16.44" height="32.77" transform="translate(416.2 328.88) rotate(-180)"/><path class="cls-15" d="M232.38,247.71H258a0,0,0,0,1,0,0v9a0,0,0,0,1,0,0H241.41a9,9,0,0,1-9-9v0A0,0,0,0,1,232.38,247.71Z" transform="translate(490.42 504.45) rotate(-180)"/><path class="cls-16" d="M215.47,247.71h25.66a0,0,0,0,1,0,0v9a0,0,0,0,1,0,0H224.5a9,9,0,0,1-9-9v0A0,0,0,0,1,215.47,247.71Z" transform="translate(456.59 504.45) rotate(-180)"/><rect class="cls-2" x="226.25" y="93.97" width="15.22" height="7.24" transform="translate(467.72 195.19) rotate(-180)"/><rect class="cls-2" x="215.98" y="47.73" width="38.27" height="52.81" rx="18.33" transform="translate(470.22 148.27) rotate(-180)"/><g class="cls-17"><rect class="cls-18" x="214.2" y="51.04" width="12.35" height="21.7" rx="6.17"/></g><path class="cls-2" d="M218.45,71a8.5,8.5,0,0,0,0,17"/><path class="cls-2" d="M218.52,71a8.5,8.5,0,0,1,0,17"/><circle class="cls-19" cx="232.84" cy="75.63" r="6.59"/><circle class="cls-19" cx="250.87" cy="75.63" r="6.59"/><path class="cls-20" d="M218,76.26a3.25,3.25,0,1,0,0,6.49"/><line class="cls-20" x1="244.28" y1="75.63" x2="239.43" y2="75.63"/><path class="cls-20" d="M243.42,79.05a2.82,2.82,0,0,1,0,5.64"/><circle class="cls-2" cx="233.86" cy="101.47" r="7.61"/><circle class="cls-21" cx="232.84" cy="90.94" r="4.45"/><path class="cls-22" d="M225.78,44.43h21.37a6,6,0,0,1,6,6v1.1a6,6,0,0,1-6,6H219.79a0,0,0,0,1,0,0V50.41A6,6,0,0,1,225.78,44.43Z" transform="translate(472.93 101.93) rotate(-180)"/><rect class="cls-22" x="246.23" y="64.19" width="8.72" height="1.95"/><rect class="cls-22" x="228.48" y="62.25" width="8.72" height="1.95"/><path class="cls-7" d="M229.82,110.9l22.91,22.91a7.18,7.18,0,0,1,0,10.13h0a7.18,7.18,0,0,1-10.13,0L219.69,121"/><rect class="cls-2" x="260.1" y="112.87" width="9.83" height="16.86" transform="translate(366.64 394.47) rotate(-135)"/><path class="cls-2" d="M285.16,108.31a1.76,1.76,0,0,0-1.35-.53,1.8,1.8,0,0,0-.45-1.78,1.83,1.83,0,0,0-1.36-.52,1.8,1.8,0,0,0-.45-1.78,1.86,1.86,0,0,0-1.05-.51l3.17-3.18a1.8,1.8,0,0,0-2.55-2.55l-7.19,7.2.6-1.3a3,3,0,0,0-.33-3.46,3,3,0,0,0-.52-.41,1.06,1.06,0,0,0-.88-.12,1,1,0,0,0-.64.57h0s-2,4.88-3.65,6.85a6.94,6.94,0,0,0,.43,9.76,7.23,7.23,0,0,0,5.51,2.34,7.91,7.91,0,0,0,5.14-2.46l2.79-2.79,1.7-1.7,1.09-1.09A1.79,1.79,0,0,0,285.16,108.31Z"/><path class="cls-2" d="M279.58,116.44l7.79-7.79a1.81,1.81,0,0,0,0-2.55,1.86,1.86,0,0,0-1.05-.51l1.46-1.46a1.81,1.81,0,0,0,0-2.55,1.86,1.86,0,0,0-1-.51h0a1.8,1.8,0,1,0-2.55-2.55h0a1.8,1.8,0,0,0-.51-1"/><path class="cls-2" d="M283.17,98a1.1,1.1,0,0,1,0,1.56l-6.2,6.21a.35.35,0,0,0,.49.49l6.21-6.2,1-1a1.1,1.1,0,0,1,1.56,0,1.12,1.12,0,0,1,0,1.57l-1,1L279,107.79a.36.36,0,0,0,0,.49.35.35,0,0,0,.5,0l6.2-6.21a1.11,1.11,0,0,1,1.57,1.57l-2.06,2-.41.41-3.74,3.74a.35.35,0,0,0,0,.5.36.36,0,0,0,.49,0l3.74-3.74a1.1,1.1,0,1,1,1.56,1.56L279.09,116"/><rect class="cls-2" x="280.56" y="100.98" width="2.91" height="5.5" transform="translate(155.95 -169.03) rotate(45)"/><line class="cls-23" x1="276.94" y1="105.88" x2="284.17" y2="98.65"/><line class="cls-23" x1="279.41" y1="108.35" x2="286.64" y2="101.12"/><line class="cls-23" x1="281.48" y1="110.43" x2="286.29" y2="105.61"/><polyline class="cls-7" points="247.37 129.06 263.45 113.05 273.56 123.2 252.57 144.09"/><polygon class="cls-24" points="444.47 183.55 355.63 183.55 355.63 188.09 372.89 247.13 647.51 247.13 647.51 233.11 444.47 183.55"/><polyline class="cls-25" points="647.51 233.11 373.36 233.11 356.98 187.42"/><polyline class="cls-25" points="373.36 244.99 373.36 233.11 641.35 233.11"/><line class="cls-26" x1="283.6" y1="281.56" x2="283.6" y2="294.47"/><path class="cls-27" d="M460.65,405.85l-1.81-5.48-2.08-42.19,3.34,4a.1.1,0,0,0,.09,0l7.16.24-1.07,43.37Z"/><path d="M456.91,358.57l3.08,3.71a.3.3,0,0,0,.2.1l7,.22-1.07,43.12h-5.41L459,400.36l-2.07-41.79m-.3-.78,2.1,42.62,1.84,5.57h5.86l1.08-43.63-7.29-.24-3.59-4.32Z"/><line class="cls-28" x1="460.5" y1="403.82" x2="459.5" y2="363.28"/><polyline class="cls-29" points="444.25 339.82 442.62 336.6 443.67 374.25 445.31 378.71 450.11 378.71 452.22 336.01 444.25 336.01"/><polyline class="cls-29" points="385.69 336.6 386.75 371.94 387.81 378.81 393.67 378.81 394.72 336.11 386.75 336.11"/><path class="cls-27" d="M392.31,405.85l-1.44-8.46-1-39.77,1.16,5.69a.12.12,0,0,0,.13.1H399l-1.05,42.44Z"/><path d="M390,359.11l.87,4.22a.26.26,0,0,0,.26.22h7.69l-1,42.17h-5.38L391,397.4l-1-38.29m-.34-3,1.06,41.28L392.2,406h5.86l1.05-42.7h-8l-1.47-7.15Zm9.43,7.15h0Z"/><line class="cls-30" x1="387.76" y1="376.63" x2="386.76" y2="336.1"/><line class="cls-28" x1="444.25" y1="339.82" x2="445.27" y2="376.89"/><line class="cls-28" x1="392.11" y1="402.17" x2="391.15" y2="363.28"/><polygon class="cls-31" points="456.92 337.16 387.34 337.16 391.15 355.37 467.46 355.37 456.92 337.16"/><rect class="cls-31" x="387.34" y="274.49" width="69.27" height="62.66"/><rect class="cls-31" x="391.15" y="355.37" width="76.32" height="7.91"/><polygon class="cls-31" points="385.69 269.32 452.1 269.32 456.61 274.49 387.34 274.49 385.69 269.32"/><polygon class="cls-31" points="387.34 337.44 387.34 274.49 385.69 269.32 385.69 329.67 385.69 334.97 385.69 336.6 391.15 363.28 391.15 355.37 387.34 337.44"/><path class="cls-27" d="M229.13,405.85l-1.07-43.37,7.16-.24a.13.13,0,0,0,.1,0l3.34-4-2.09,42.23-1.8,5.44Z"/><path d="M238.51,358.57l-2.07,41.79-1.77,5.36h-5.41L228.2,362.6l7-.22a.3.3,0,0,0,.2-.1l3.09-3.71m.3-.78-3.59,4.32-7.29.24L229,406h5.86l1.84-5.57,2.11-42.62Z"/><line class="cls-28" x1="234.92" y1="403.82" x2="235.92" y2="363.28"/><polyline class="cls-29" points="251.16 339.82 252.8 336.6 251.74 374.25 250.11 378.71 245.3 378.71 243.2 336.01 251.16 336.01"/><polyline class="cls-29" points="309.72 336.6 308.67 371.94 307.6 378.81 301.75 378.81 300.69 336.11 308.66 336.11"/><path class="cls-27" d="M297.48,405.85l-1.05-42.44h7.84a.14.14,0,0,0,.13-.1l1.16-5.69-1,39.78-1.44,8.45Z"/><path d="M305.39,359.11l-1,38.25L303,405.72h-5.38l-1-42.17h7.7a.27.27,0,0,0,.26-.22l.86-4.22m.34-3-1.46,7.15h-8l1.05,42.7h5.86l1.46-8.57,1.06-41.28Z"/><line class="cls-30" x1="307.66" y1="376.63" x2="308.66" y2="336.1"/><line class="cls-28" x1="251.16" y1="339.82" x2="250.14" y2="376.89"/><line class="cls-28" x1="303.31" y1="402.17" x2="304.27" y2="363.28"/><polygon class="cls-31" points="238.49 337.16 308.07 337.16 304.27 355.37 227.95 355.37 238.49 337.16"/><rect class="cls-31" x="238.81" y="274.49" width="69.27" height="62.66" transform="translate(546.88 611.65) rotate(-180)"/><rect class="cls-31" x="227.95" y="355.37" width="76.32" height="7.91" transform="translate(532.22 718.65) rotate(-180)"/><polygon class="cls-31" points="309.72 269.32 243.31 269.32 238.81 274.49 308.07 274.49 309.72 269.32"/><polygon class="cls-31" points="308.07 337.44 308.07 274.49 309.72 269.32 309.72 329.67 309.72 334.97 309.72 336.6 304.27 363.28 304.27 355.37 308.07 337.44"/><line class="cls-32" x1="388.42" y1="337.16" x2="455.03" y2="337.16"/><line class="cls-32" x1="240.62" y1="337.16" x2="305.73" y2="337.16"/><path class="cls-31" d="M362.78,396.45c-3.44-1.26-8.91-2.08-15.07-2.08s-11.64.82-15.08,2.08h-3.78v3.12c0,2.87,8.44,5.2,18.86,5.2s18.85-2.33,18.85-5.2v-3.12Z"/><ellipse class="cls-31" cx="347.71" cy="396.45" rx="18.85" ry="5.2"/><path class="cls-33" d="M346,340.91h4.09a0,0,0,0,1,0,0v54.61a1.46,1.46,0,0,1-1.46,1.46h-1.17a1.46,1.46,0,0,1-1.46-1.46V340.91A0,0,0,0,1,346,340.91Z"/><path class="cls-33" d="M375.72,340.91c-6.39-2.34-16.56-3.86-28-3.86s-21.63,1.52-28,3.86h-7v5.8c0,5.33,15.68,9.66,35,9.66s35-4.33,35-9.66v-5.8Z"/><ellipse class="cls-34" cx="347.71" cy="340.91" rx="35.03" ry="9.66"/><path d="M411.3,144.58l.27-2.13a1.73,1.73,0,0,0,1.32.74,2.1,2.1,0,0,0,2-1.4,3,3,0,0,1,.09-.61,2.09,2.09,0,0,0,3.77-1l.39-3.06h0l.5-4,.57-4.54c.63-5-1.71-8.52-6.09-9.06-4.61-.58-6.78,2-8.43,4.84-.95,1.64-3.59,3.6-4.68,4.36a14.25,14.25,0,0,1-1.85,1.08c-.63.32-1,.51-1.06.92a.66.66,0,0,0,.06.36,3.53,3.53,0,0,0,4.27,1.68,11.24,11.24,0,0,0,2.89-1.69l.15-.1-1.55,12.41a19.13,19.13,0,0,1,5.18,2.72A2,2,0,0,0,411.3,144.58Z"/><path class="cls-2" d="M409.22,145.31a1.29,1.29,0,0,1-1.12-1.44l1.09-8.68a.41.41,0,0,0-.36-.45.4.4,0,0,0-.45.35l-1.08,8.68h0v0a1.28,1.28,0,1,1-2.54-.32L406.31,131c0-.22.09-.68-.25-.88s-.72,0-1.19.35l0,0A11,11,0,0,1,402.2,132a2.73,2.73,0,0,1-3.23-1.15,4.7,4.7,0,0,1,.58-.32,14.12,14.12,0,0,0,1.95-1.13c1.4-1,3.91-2.9,4.91-4.62,1.75-3,3.72-4.94,7.63-4.45a5.76,5.76,0,0,1,4.47,2.69,8.41,8.41,0,0,1,.91,5.47l-.57,4.54-.05.4-.83,6.68a1.29,1.29,0,1,1-2.55-.32l.47-3.76a.4.4,0,0,0-.35-.45.4.4,0,0,0-.45.35l-.62,4.94-.05.4a1.29,1.29,0,0,1-2.55-.32l.67-5.34a.41.41,0,0,0-.81-.1l-1,8.28-.05.4A1.3,1.3,0,0,1,409.22,145.31Z"/><polyline class="cls-35" points="410.45 66.16 403.1 124.99 418.77 126.95 426.12 68.12"/><polyline class="cls-36" points="427.89 107.71 427.89 196.2 413.87 196.2 410.39 113.22"/><path class="cls-1" d="M426.64,90.47a19.39,19.39,0,1,1,0,38.78"/><path class="cls-37" d="M444.69,109.86c0,10.71-3.86,19.39-14.57,19.39A19.39,19.39,0,0,1,423,127.9"/><polyline class="cls-37" points="447.34 108.4 447.34 196.2 432.76 196.2 429.69 129.05"/><path class="cls-35" d="M427.67,50.57a21.51,21.51,0,0,1,21.51,21.51v50h-43v-50A21.51,21.51,0,0,1,427.67,50.57Z"/><path class="cls-15" d="M431.37,206.26H400.46v-.66a9,9,0,0,1,9-9h18.44Z"/><path class="cls-16" d="M450.82,206.26H419.9v-.66a9,9,0,0,1,9-9h18.44Z"/><path class="cls-35" d="M429.47,68.52V98.24a7.89,7.89,0,0,0,7.89,7.9h0a7.89,7.89,0,0,0,7.9-7.9V68.52"/><circle class="cls-2" cx="427.67" cy="52.17" r="6.44"/><rect class="cls-2" x="421.23" y="43.97" width="12.88" height="8.2"/><rect class="cls-14" x="400.08" y="17.42" width="6.87" height="16.92" rx="2.76" transform="translate(8.06 110.18) rotate(-15.7)"/><rect class="cls-2" x="402.23" y="11.3" width="34.25" height="43.6" rx="13.77" transform="translate(6.69 114.74) rotate(-15.7)"/><circle class="cls-14" cx="402.79" cy="12.08" r="9.39"/><circle class="cls-14" cx="416.43" cy="9.44" r="8.24"/><circle class="cls-14" cx="426.94" cy="9.04" r="5.77"/><rect class="cls-14" x="429.19" y="6.67" width="11.92" height="26.33" rx="5.96" transform="translate(10.87 118.52) rotate(-15.7)"/><circle class="cls-2" cx="436.48" cy="31.48" r="8.88"/><path class="cls-38" d="M435,27a4.72,4.72,0,1,1,2.55,9.08"/><line class="cls-39" x1="419.51" y1="23.98" x2="414.84" y2="26.68"/><line class="cls-39" x1="406.19" y1="28.69" x2="400.84" y2="29.37"/><rect class="cls-40" x="407.53" y="36.86" width="6.02" height="3.14" rx="1.57" transform="translate(499.56 441.04) rotate(-107.82)"/><rect class="cls-15" x="415.09" y="29.85" width="4.18" height="3.22" rx="1.61"/><rect class="cls-15" x="404.07" y="31.46" width="4.18" height="3.22" rx="1.61"/><path class="cls-41" d="M423.93,41c-7.61,1.13-6,7.8-6,7.8"/><path d="M406.78,54.18S408,56,408,56a1.75,1.75,0,0,0-1.48.32,2.11,2.11,0,0,0-.59,2.39c.37.53.35.52.34.52a2.06,2.06,0,0,0-1.64.31,2.1,2.1,0,0,0-.55,2.91L405.8,65h0l2.28,3.34,2.59,3.78c2.86,4.2,6.91,5.26,10.56,2.77,3.84-2.62,3.76-6,3.11-9.22-.37-1.86.31-5.07.62-6.36a14.52,14.52,0,0,1,.67-2c.26-.66.42-1,.19-1.39a.61.61,0,0,0-.29-.23,3.53,3.53,0,0,0-4.31,1.56,11.69,11.69,0,0,0-1.05,3.18s0,.11,0,.18L413.08,50.2a2.09,2.09,0,0,0-3.82,1.14,2.09,2.09,0,0,0-1.86.24A2,2,0,0,0,406.78,54.18Z"/><path class="cls-2" d="M407.85,52.25a1.3,1.3,0,0,1,1.79.34l4.93,7.22a.4.4,0,1,0,.67-.45l-4.93-7.23h0l0,0a1.28,1.28,0,1,1,2.12-1.45l7.12,10.43c.13.18.39.57.78.5s.51-.51.65-1.05v0a10.77,10.77,0,0,1,.95-2.92,2.73,2.73,0,0,1,3.19-1.28c0,.15-.14.39-.23.62a16,16,0,0,0-.71,2.14c-.4,1.67-1,4.77-.62,6.71.68,3.43.48,6.17-2.78,8.39a5.78,5.78,0,0,1-5.13.94,8.48,8.48,0,0,1-4.31-3.49l-2.58-3.79-.22-.33-3.8-5.56a1.28,1.28,0,0,1,2.12-1.45L409,63.62a.39.39,0,0,0,.56.11.4.4,0,0,0,.11-.56l-2.81-4.11-.22-.34a1.28,1.28,0,1,1,2.12-1.44l3,4.44a.41.41,0,1,0,.67-.46l-4.7-6.89-.23-.33A1.29,1.29,0,0,1,407.85,52.25Z"/><polyline class="cls-42" points="443.52 93.31 425.17 66.42 412.12 75.33 430.48 102.22"/></svg>