<svg id="圖層_1" data-name="圖層 1" xmlns="http://www.w3.org/2000/svg" viewBox="0 0 154.56 160.92"><defs><style>.cls-1{fill:#fff;}.cls-2{fill:#f8f8f8;}.cls-3{fill:#424242;}.cls-4{fill:#ffda6a;}.cls-10,.cls-11,.cls-12,.cls-5{fill:none;stroke-linecap:round;stroke-linejoin:round;}.cls-10,.cls-5{stroke:#000;}.cls-5{stroke-width:0.33px;}.cls-6{fill:#5e3f3e;}.cls-7{fill:#dadada;}.cls-8{fill:#ffba00;}.cls-9{fill:#373737;}.cls-10,.cls-11{stroke-width:0.25px;}.cls-11{stroke:#c48000;}.cls-12{stroke:#5d5d5d;}</style></defs><title>Han</title><g id="Han"><g id="Group_9003" data-name="Group 9003"><g id="Path_2801" data-name="Path 2801"><path id="Path_2863" data-name="Path 2863" class="cls-1" d="M30.46,136.76h93.63l30.3,22.41H.16Z" transform="translate(0 -2.04)"/></g><g id="Rectangle_1361" data-name="Rectangle 1361"><rect id="Rectangle_1396" data-name="Rectangle 1396" class="cls-2" x="0.17" y="156.8" width="154.23" height="3.95"/></g><g id="Group_8257" data-name="Group 8257"><path id="Path_2864" data-name="Path 2864" class="cls-3" d="M154.39,163H.16A.16.16,0,0,1,0,162.8H0v-3.91a.16.16,0,0,1,.13-.16l30.24-22.1a.11.11,0,0,1,.1,0H124.1a.13.13,0,0,1,.1,0l30.23,22.1a.15.15,0,0,1,.13.16v3.91a.16.16,0,0,1-.16.16h0ZM.33,162.63h153.9V159L124,136.92H30.52L.33,159Z" transform="translate(0 -2.04)"/></g><g id="Group_8258" data-name="Group 8258"><path id="Path_2865" data-name="Path 2865" class="cls-3" d="M125.1,159H3.29a.16.16,0,0,1-.16-.16h0a.16.16,0,0,1,.16-.16H125.1a.16.16,0,0,1,.16.16h0a.17.17,0,0,1-.16.17h0Z" transform="translate(0 -2.04)"/></g><g id="Group_8259" data-name="Group 8259"><path id="Path_2866" data-name="Path 2866" class="cls-3" d="M151.72,159h-24a.17.17,0,0,1-.17-.16.18.18,0,0,1,.17-.17h24a.17.17,0,0,1,.16.17h0a.16.16,0,0,1-.16.16Z" transform="translate(0 -2.04)"/></g></g><g id="Group_9012" data-name="Group 9012"><g id="Group_9005" data-name="Group 9005"><g id="Group_9004" data-name="Group 9004"><path id="Path_2990" data-name="Path 2990" class="cls-4" d="M101.32,94.75V89.68a5.16,5.16,0,0,0-1.22-3.46,4.66,4.66,0,0,0-3.56-1.44A4.47,4.47,0,0,0,91.9,89a25,25,0,0,1-1.45,4.77h0a.66.66,0,0,0,0,.55.68.68,0,0,0,.45.34,2,2,0,0,0,.42,0,1.9,1.9,0,0,0,1.73-1.42l.31-.86V99a1.16,1.16,0,0,0,2.32.07v-3a2.19,2.19,0,0,1,2.57,0,1.16,1.16,0,0,1,1.57-.46,1.33,1.33,0,0,1,.3.23A1.17,1.17,0,0,0,101.32,94.75Z" transform="translate(0 -2.04)"/><path id="Path_2991" data-name="Path 2991" class="cls-4" d="M94.56,100.15a1.18,1.18,0,0,0,.71-.25h0a1.16,1.16,0,1,0,2.31,0h0a1.16,1.16,0,0,0,1.62-.2,1.14,1.14,0,0,0,.25-.71V97.66a1.16,1.16,0,0,0,1.62-.2,1.18,1.18,0,0,0,.25-.71V89.67" transform="translate(0 -2.04)"/><path id="Path_2992" data-name="Path 2992" class="cls-4" d="M100.87,89.68v7.07a.71.71,0,0,1-1.42,0v-3.4a.23.23,0,1,0-.45,0V99a.71.71,0,0,1-1.42.06V93.35a.23.23,0,1,0-.45,0V99.9a.71.71,0,0,1-1.42,0V93.35a.22.22,0,0,0-.22-.23.24.24,0,0,0-.23.22h0V99a.7.7,0,0,1-.7.71" transform="translate(0 -2.04)"/><rect id="Rectangle_1734" data-name="Rectangle 1734" class="cls-4" x="95.71" y="92.75" width="1.87" height="3.53"/></g><line id="Line_63" data-name="Line 63" class="cls-5" x1="95.31" y1="91.82" x2="95.31" y2="97.84"/><line id="Line_64" data-name="Line 64" class="cls-5" x1="97.58" y1="91.82" x2="97.58" y2="97.84"/><line id="Line_65" data-name="Line 65" class="cls-5" x1="99.44" y1="91.87" x2="99.44" y2="95.62"/></g><g id="Group_9007" data-name="Group 9007"><g id="Group_9006" data-name="Group 9006"><path id="Path_2993" data-name="Path 2993" class="cls-4" d="M62.17,95.91a1.15,1.15,0,0,1,1.63-.08,1.13,1.13,0,0,1,.24.3,1.15,1.15,0,0,1,1.63-.08,1,1,0,0,1,.24.31,1.16,1.16,0,0,0,.71-.25V99a1.16,1.16,0,1,0,2.31,0V92.46l.31.86A1.92,1.92,0,0,0,71,94.75a1.52,1.52,0,0,0,.42-.06.66.66,0,0,0,.49-.89h0A24.78,24.78,0,0,1,70.43,89a4.46,4.46,0,0,0-4.63-4.23,4.63,4.63,0,0,0-3.56,1.44A5.07,5.07,0,0,0,61,89.68v5.07A1.17,1.17,0,0,0,62.17,95.91Z" transform="translate(0 -2.04)"/><path id="Path_2994" data-name="Path 2994" class="cls-4" d="M67.78,100.15a1.14,1.14,0,0,1-.71-.25h0a1.16,1.16,0,0,1-2.32,0h0a1.16,1.16,0,0,1-1.62-.2,1.18,1.18,0,0,1-.25-.71V97.66a1.16,1.16,0,0,1-1.62-.2,1.11,1.11,0,0,1-.24-.71V89.67" transform="translate(0 -2.04)"/><path id="Path_2995" data-name="Path 2995" class="cls-4" d="M61.46,89.68v7.07a.71.71,0,0,0,1.42,0v-3.4a.23.23,0,1,1,.45,0V99a.71.71,0,0,0,1.42,0V93.35a.23.23,0,1,1,.45,0V99.9a.71.71,0,1,0,1.42,0V93.35a.22.22,0,0,1,.22-.23.22.22,0,0,1,.22.22h0V99a.72.72,0,0,0,.71.71" transform="translate(0 -2.04)"/><rect id="Rectangle_1735" data-name="Rectangle 1735" class="cls-4" x="64.75" y="92.75" width="1.87" height="3.53"/></g><line id="Line_66" data-name="Line 66" class="cls-5" x1="67.03" y1="91.82" x2="67.03" y2="97.84"/><line id="Line_67" data-name="Line 67" class="cls-5" x1="64.75" y1="91.82" x2="64.75" y2="97.84"/><line id="Line_68" data-name="Line 68" class="cls-5" x1="62.89" y1="91.87" x2="62.89" y2="95.62"/></g><rect id="Rectangle_1736" data-name="Rectangle 1736" class="cls-4" x="62.4" y="68.52" width="7.32" height="21.06"/><rect id="Rectangle_1737" data-name="Rectangle 1737" class="cls-4" x="92.66" y="68.52" width="7.32" height="21.06"/><rect id="Rectangle_1738" data-name="Rectangle 1738" class="cls-3" x="68.06" y="73.06" width="26.1" height="18.74"/><rect id="Rectangle_1739" data-name="Rectangle 1739" class="cls-3" x="68.09" y="77.87" width="11.81" height="63.38"/><rect id="Rectangle_1740" data-name="Rectangle 1740" class="cls-3" x="82.35" y="77.87" width="11.81" height="63.38"/><rect id="Rectangle_1741" data-name="Rectangle 1741" class="cls-6" x="68.06" y="77.47" width="26.1" height="3.36"/><g id="Group_9008" data-name="Group 9008"><path id="Rectangle_1742" data-name="Rectangle 1742" class="cls-7" d="M81.17,37.45h0a20.29,20.29,0,0,1,20.29,20.29v16.4H60.88V57.74A20.28,20.28,0,0,1,81.17,37.45Z" transform="translate(0 -2.04)"/></g><g id="Path_2996" data-name="Path 2996"><path class="cls-1" d="M92.36,79.66H69.89a4.25,4.25,0,0,1-4.24-4.25V52.78a16.13,16.13,0,0,1,4.24-10.94,15.14,15.14,0,0,1,10.49-5l.75,0A15.48,15.48,0,0,1,96.61,52.33V75.41A4.26,4.26,0,0,1,92.36,79.66Z" transform="translate(0 -2.04)"/><path class="cls-1" d="M81.13,37.1h0l-.74,0A14.85,14.85,0,0,0,70.08,42,15.86,15.86,0,0,0,65.9,52.78V75.41a4,4,0,0,0,4,4H92.36a4,4,0,0,0,4-4V52.33A15.23,15.23,0,0,0,81.13,37.1m0-.5A15.73,15.73,0,0,1,96.86,52.33V75.41a4.51,4.51,0,0,1-4.5,4.5H69.89a4.5,4.5,0,0,1-4.49-4.5V52.78c0-8.48,6.51-15.76,15-16.16Z" transform="translate(0 -2.04)"/></g><rect id="Rectangle_1743" data-name="Rectangle 1743" class="cls-8" x="75.65" y="27.97" width="10.95" height="9.67"/><g id="Path_2997" data-name="Path 2997"><path class="cls-1" d="M83.36,43.44l-1.91-3.7,5.1-3.87,2,2.68Z" transform="translate(0 -2.04)"/><path class="cls-1" d="M86.5,36.22l-4.74,3.59L83.43,43l4.77-4.51-1.7-2.3m.1-.7,2.27,3.06-5.58,5.27-2.16-4.18Z" transform="translate(0 -2.04)"/></g><g id="Path_2998" data-name="Path 2998"><path class="cls-1" d="M78.9,43.44l-5.18-4.89,2-2.68,5.11,3.87Z" transform="translate(0 -2.04)"/><path class="cls-1" d="M75.75,36.22l-1.7,2.3L78.83,43l1.66-3.22-4.74-3.59m-.1-.7,5.48,4.15L79,43.85l-5.58-5.27Z" transform="translate(0 -2.04)"/></g><path id="Rectangle_1744" data-name="Rectangle 1744" class="cls-6" d="M101.31,149.78H82.87v-6.5H94.82a6.49,6.49,0,0,1,6.49,6.5Z" transform="translate(0 -2.04)"/><path id="Rectangle_1745" data-name="Rectangle 1745" class="cls-6" d="M67.51,143.28H79.46v6.5H61A6.49,6.49,0,0,1,67.51,143.28Z" transform="translate(0 -2.04)"/><path id="Path_2999" data-name="Path 2999" class="cls-4" d="M88.33,32.57a6.13,6.13,0,0,0,3.3-5.29l.48-13.63A11.14,11.14,0,0,0,85.24,3.22l-2-.78a5.72,5.72,0,0,0-4.19,0l-2,.78a11.15,11.15,0,0,0-6.86,10.43l.47,13.63A6.15,6.15,0,0,0,74,32.57l5.07,2.54a5.62,5.62,0,0,0,4.19,0Z" transform="translate(0 -2.04)"/><g id="Group_9009" data-name="Group 9009"><path id="Path_3000" data-name="Path 3000" class="cls-9" d="M83.57,16v1.26L85.79,17h2.26l2.36.8-2.16-1.9-2.46,0Z" transform="translate(0 -2.04)"/><path id="Path_3001" data-name="Path 3001" d="M84.77,20.62a1.58,1.58,0,0,1,3.15-.08v.08" transform="translate(0 -2.04)"/></g><g id="Group_9010" data-name="Group 9010"><path id="Path_3002" data-name="Path 3002" class="cls-9" d="M78.76,16v1.26L76.54,17H74.28l-2.36.8,2.16-1.9,2.46,0Z" transform="translate(0 -2.04)"/><path id="Path_3003" data-name="Path 3003" d="M77.56,20.62a1.58,1.58,0,0,0-3.15,0" transform="translate(0 -2.04)"/></g><g id="Group_9011" data-name="Group 9011"><rect id="Rectangle_1746" data-name="Rectangle 1746" class="cls-8" x="78.3" y="20.15" width="5.74" height="2.69" rx="1.35" ry="1.35"/><rect id="Rectangle_1747" data-name="Rectangle 1747" class="cls-8" x="79.97" y="17.99" width="2.4" height="5.87" rx="1.15" ry="1.15"/></g><path id="Path_3004" data-name="Path 3004" class="cls-10" d="M85.29,27.9a7.46,7.46,0,0,1-8.33,0" transform="translate(0 -2.04)"/><path id="Path_3005" data-name="Path 3005" class="cls-11" d="M84.55,29.13a6.1,6.1,0,0,1-6.83,0" transform="translate(0 -2.04)"/><path id="Path_3006" data-name="Path 3006" class="cls-11" d="M78.76,28.12a2.14,2.14,0,0,1,2.4,0" transform="translate(0 -2.04)"/><path id="Path_3007" data-name="Path 3007" class="cls-11" d="M81.16,28.12a2.14,2.14,0,0,1,2.4,0" transform="translate(0 -2.04)"/><path id="Path_3008" data-name="Path 3008" class="cls-12" d="M70.3,19.83l-.13-5.36A10.51,10.51,0,0,1,70.66,11l1.66-4.12" transform="translate(0 -2.04)"/><path id="Path_3009" data-name="Path 3009" class="cls-12" d="M92.2,19.83l.13-5.31a9.31,9.31,0,0,0-.59-3.5L90,6.92" transform="translate(0 -2.04)"/><circle id="Ellipse_429" data-name="Ellipse 429" class="cls-4" cx="70.58" cy="19.71" r="3.39"/><circle id="Ellipse_430" data-name="Ellipse 430" class="cls-4" cx="91.78" cy="19.71" r="3.39"/></g></g></svg>