<svg id="圖層_1" data-name="圖層 1" xmlns="http://www.w3.org/2000/svg" viewBox="0 0 154.56 159.39"><defs><style>.cls-1{fill:#fff;}.cls-2{fill:#f8f8f8;}.cls-3{fill:#424242;}.cls-4{fill:#5e3f3e;}.cls-5{fill:#ffda6a;}.cls-13,.cls-14,.cls-6,.cls-9{fill:none;}.cls-13,.cls-6{stroke:#000;}.cls-13,.cls-14,.cls-6{stroke-linecap:round;stroke-linejoin:round;}.cls-6{stroke-width:0.33px;}.cls-7{fill:#afaf8a;}.cls-8{fill:#c7c7ad;}.cls-9{stroke:#424242;stroke-miterlimit:10;stroke-width:0.5px;}.cls-10{fill:#ffba00;}.cls-11{fill:#f70;}.cls-12{fill:#373737;}.cls-13,.cls-14{stroke-width:0.25px;}.cls-14{stroke:#c48000;}</style></defs><title>Song</title><g id="Song"><g id="Group_8994" data-name="Group 8994"><g id="Path_2801" data-name="Path 2801"><path id="Path_2863" data-name="Path 2863" class="cls-1" d="M30.46,133.64h93.63l30.3,22.41H.17Z" transform="translate(0 -0.45)"/></g><g id="Rectangle_1361" data-name="Rectangle 1361"><rect id="Rectangle_1396" data-name="Rectangle 1396" class="cls-2" x="0.17" y="155.27" width="154.23" height="3.95"/></g><g id="Group_8257" data-name="Group 8257"><path id="Path_2864" data-name="Path 2864" class="cls-3" d="M154.39,159.84H.17a.17.17,0,0,1-.17-.16H0v-3.91a.16.16,0,0,1,.13-.16l30.24-22.1a.15.15,0,0,1,.1,0H124.1a.19.19,0,0,1,.1,0l30.23,22.1a.15.15,0,0,1,.13.16v3.91a.16.16,0,0,1-.16.16h0ZM.33,159.52h153.9v-3.65L124,133.8H30.52L.33,155.87Z" transform="translate(0 -0.45)"/></g><g id="Group_8258" data-name="Group 8258"><path id="Path_2865" data-name="Path 2865" class="cls-3" d="M125.1,155.89H3.29a.17.17,0,0,1-.16-.17h0a.16.16,0,0,1,.16-.16H125.1a.16.16,0,0,1,.16.16h0a.17.17,0,0,1-.16.17Z" transform="translate(0 -0.45)"/></g><g id="Group_8259" data-name="Group 8259"><path id="Path_2866" data-name="Path 2866" class="cls-3" d="M151.72,155.89h-24a.18.18,0,0,1-.17-.17.17.17,0,0,1,.17-.16h24a.16.16,0,0,1,.16.16h0a.17.17,0,0,1-.16.17Z" transform="translate(0 -0.45)"/></g></g><g id="Group_9002" data-name="Group 9002"><path id="Rectangle_1724" data-name="Rectangle 1724" class="cls-4" d="M97.51,146.66H79.07v-6.49H91a6.49,6.49,0,0,1,6.49,6.49Z" transform="translate(0 -0.45)"/><g id="Group_9001" data-name="Group 9001"><g id="Group_9000" data-name="Group 9000"><g id="Group_8996" data-name="Group 8996"><g id="Group_8995" data-name="Group 8995"><path id="Path_2966" data-name="Path 2966" class="cls-5" d="M97.12,91.63V86.56a5.06,5.06,0,0,0-1.21-3.45,4.63,4.63,0,0,0-3.56-1.44,4.46,4.46,0,0,0-4.64,4.23,25,25,0,0,1-1.45,4.77h0a.66.66,0,0,0,0,.55.68.68,0,0,0,.45.34,2,2,0,0,0,.43.06A1.92,1.92,0,0,0,88.9,90.2l.31-.86v6.53a1.16,1.16,0,1,0,2.32,0V93a2.19,2.19,0,0,1,2.57,0,1.16,1.16,0,0,1,1.57-.46,1.13,1.13,0,0,1,.3.24A1.16,1.16,0,0,0,97.12,91.63Z" transform="translate(0 -0.45)"/><path id="Path_2967" data-name="Path 2967" class="cls-5" d="M90.36,97a1.19,1.19,0,0,0,.71-.24h0a1.16,1.16,0,0,0,2.32,0h0A1.15,1.15,0,0,0,95,96.58a1.14,1.14,0,0,0,.25-.71V94.54a1.14,1.14,0,0,0,1.62-.2,1.07,1.07,0,0,0,.24-.71V86.56" transform="translate(0 -0.45)"/><path id="Path_2968" data-name="Path 2968" class="cls-5" d="M96.68,86.56v7.07a.71.71,0,0,1-.69.73.7.7,0,0,1-.73-.68V90.23a.23.23,0,1,0-.45,0h0v5.64a.71.71,0,0,1-1.42,0V90.23a.23.23,0,1,0-.45,0h0v6.56a.7.7,0,0,1-.73.68.72.72,0,0,1-.69-.68V90.23a.22.22,0,1,0-.44,0h0v5.64a.73.73,0,0,1-.71.71" transform="translate(0 -0.45)"/><rect id="Rectangle_1725" data-name="Rectangle 1725" class="cls-5" x="91.52" y="91.22" width="1.87" height="3.53"/></g><line id="Line_57" data-name="Line 57" class="cls-6" x1="91.11" y1="90.29" x2="91.11" y2="96.3"/><line id="Line_58" data-name="Line 58" class="cls-6" x1="93.39" y1="90.29" x2="93.39" y2="96.3"/><line id="Line_59" data-name="Line 59" class="cls-6" x1="95.25" y1="90.33" x2="95.25" y2="94.09"/></g><g id="Group_8998" data-name="Group 8998"><g id="Group_8997" data-name="Group 8997"><path id="Path_2969" data-name="Path 2969" class="cls-5" d="M58,92.79a1.15,1.15,0,0,1,1.63-.08,1.13,1.13,0,0,1,.24.3,1.15,1.15,0,0,1,1.63-.07,1,1,0,0,1,.24.3,1.18,1.18,0,0,0,.71-.25v2.89a1.16,1.16,0,0,0,2.31,0V89.34l.31.87a1.92,1.92,0,0,0,1.73,1.42,2,2,0,0,0,.42,0,.71.71,0,0,0,.46-.35.66.66,0,0,0,0-.55h0a24.56,24.56,0,0,1-1.45-4.77,4.46,4.46,0,0,0-4.63-4.23A4.66,4.66,0,0,0,58,83.11a5.06,5.06,0,0,0-1.21,3.45v5.07A1.15,1.15,0,0,0,58,92.79Z" transform="translate(0 -0.45)"/><path id="Path_2970" data-name="Path 2970" class="cls-5" d="M63.58,97a1.18,1.18,0,0,1-.7-.24h0a1.16,1.16,0,1,1-2.32,0h0a1.15,1.15,0,0,1-1.62-.21,1.14,1.14,0,0,1-.25-.71V94.54a1.15,1.15,0,0,1-1.62-.2,1.14,1.14,0,0,1-.25-.71V86.56" transform="translate(0 -0.45)"/><path id="Path_2971" data-name="Path 2971" class="cls-5" d="M57.27,86.56v7.07a.71.71,0,1,0,1.42,0v-3.4a.23.23,0,1,1,.45,0h0v5.64a.71.71,0,0,0,1.42,0V90.23a.23.23,0,1,1,.45,0h0v6.56a.71.71,0,1,0,1.42,0V90.23a.22.22,0,0,1,.22-.23.24.24,0,0,1,.23.23h0v5.64a.71.71,0,0,0,.7.71" transform="translate(0 -0.45)"/><rect id="Rectangle_1726" data-name="Rectangle 1726" class="cls-5" x="60.56" y="91.22" width="1.87" height="3.53"/></g><line id="Line_60" data-name="Line 60" class="cls-6" x1="62.83" y1="90.29" x2="62.83" y2="96.3"/><line id="Line_61" data-name="Line 61" class="cls-6" x1="60.56" y1="90.29" x2="60.56" y2="96.3"/><line id="Line_62" data-name="Line 62" class="cls-6" x1="58.7" y1="90.33" x2="58.7" y2="94.09"/></g><g id="Group_8999" data-name="Group 8999"><path id="Rectangle_1727" data-name="Rectangle 1727" class="cls-7" d="M77.28,36.25h0A21.09,21.09,0,0,1,98.37,57.34V89H56.19V57.34A21.09,21.09,0,0,1,77.28,36.25Z" transform="translate(0 -0.45)"/></g><g id="Rectangle_1728" data-name="Rectangle 1728"><rect class="cls-8" x="64.26" y="87.29" width="11.81" height="52.43"/><rect class="cls-9" x="64.51" y="87.54" width="11.31" height="51.93"/></g><g id="Rectangle_1729" data-name="Rectangle 1729"><rect class="cls-8" x="78.51" y="87.29" width="11.81" height="52.43"/><rect class="cls-9" x="78.76" y="87.54" width="11.31" height="51.93"/></g><g id="Path_2972" data-name="Path 2972"><path class="cls-8" d="M93.38,92.47H61.18V51.9a16.1,16.1,0,1,1,32.2,0Z" transform="translate(0 -0.45)"/><path class="cls-3" d="M77.28,36.05A15.84,15.84,0,0,0,61.43,51.9V92.22h31.7V51.9A15.84,15.84,0,0,0,77.28,36.05m0-.5A16.35,16.35,0,0,1,93.63,51.9V92.72H60.93V51.9A16.35,16.35,0,0,1,77.28,35.55Z" transform="translate(0 -0.45)"/></g><rect id="Rectangle_1730" data-name="Rectangle 1730" class="cls-10" x="71.59" y="30.07" width="11.39" height="17.55"/><path id="Path_2973" data-name="Path 2973" class="cls-1" d="M69.23,39.43l8,1.13,8-1.13-8,23Z" transform="translate(0 -0.45)"/><path id="Path_2974" data-name="Path 2974" class="cls-11" d="M78.46,43.88H76.1l-1-3.3h4.36Z" transform="translate(0 -0.45)"/><path id="Path_2975" data-name="Path 2975" class="cls-11" d="M76.1,43.88h2.36l1.1,10.23-2.37,8.34L75,54.19Z" transform="translate(0 -0.45)"/><circle id="Ellipse_427" data-name="Ellipse 427" class="cls-5" cx="66.46" cy="21.48" r="3.52"/><circle id="Ellipse_428" data-name="Ellipse 428" class="cls-5" cx="87.34" cy="21.48" r="3.52"/><path id="Path_2976" data-name="Path 2976" class="cls-5" d="M78.43,35.83H75.52a6.73,6.73,0,0,1-5.81-3.22L67.2,28.36a6,6,0,0,1-.84-3.06V13.7c0-5.5,4.78-10,10.61-10h0c5.83,0,10.61,4.51,10.61,10V25.3a6,6,0,0,1-.84,3.06l-2.51,4.25A6.73,6.73,0,0,1,78.43,35.83Z" transform="translate(0 -0.45)"/><path id="Path_2977" data-name="Path 2977" d="M69.08,7.13S67,2.9,73.87.8C79.24-.82,86.08,3.6,87.65,6.5s2.18,4.81-.11,12.88c0,0-.63-3-1.4-3.4,0,0,.71-4,.27-5.21s-4.53-8-12.35-6.13A11.34,11.34,0,0,0,69.08,7.13Z" transform="translate(0 -0.45)"/><path id="Path_2978" data-name="Path 2978" d="M69.34,6.87a16.52,16.52,0,0,0-2.19,4.18,20.31,20.31,0,0,0,.35,4.86S66.31,17,66.31,19.83c0,0-1.79-2-1.74-6.73C64.61,8.77,67.34,5,69.34,6.87Z" transform="translate(0 -0.45)"/><path id="Path_2979" data-name="Path 2979" class="cls-12" d="M79,15.13H83.4l1.87,1.4.82,1.88-1.4-1.29-1.43-.72H79.54" transform="translate(0 -0.45)"/><path id="Path_2980" data-name="Path 2980" class="cls-12" d="M74.58,15.13H70.14l-1.88,1.4-.82,1.88,1.41-1.29,1.43-.72H74" transform="translate(0 -0.45)"/><path id="Path_2981" data-name="Path 2981" d="M70.2,19.94a1.53,1.53,0,1,1,3.06,0" transform="translate(0 -0.45)"/><path id="Path_2982" data-name="Path 2982" d="M80.28,19.94a1.53,1.53,0,0,1,3.06,0" transform="translate(0 -0.45)"/><path id="Rectangle_1731" data-name="Rectangle 1731" class="cls-10" d="M75,23.08h3.55a1,1,0,0,1,1,1h0a1,1,0,0,1-1,1H75a1,1,0,0,1-1-1h0A1,1,0,0,1,75,23.08Z" transform="translate(0 -0.45)"/><path id="Rectangle_1732" data-name="Rectangle 1732" class="cls-10" d="M76.81,19.52h0A1.14,1.14,0,0,1,78,20.67v4a1.14,1.14,0,0,1-1.14,1.15h0a1.14,1.14,0,0,1-1.15-1.15v-4A1.14,1.14,0,0,1,76.81,19.52Z" transform="translate(0 -0.45)"/><g id="Path_2983" data-name="Path 2983"><path class="cls-1" d="M79.6,44.5l-2-3.86,5.32-4L85,39.4Z" transform="translate(0 -0.45)"/><path class="cls-1" d="M82.87,37l-5,3.76,1.74,3.38,5-4.72L82.87,37m.1-.7,2.36,3.18-5.8,5.48-2.25-4.35Z" transform="translate(0 -0.45)"/></g><g id="Path_2984" data-name="Path 2984"><path class="cls-1" d="M75,44.5l-5.4-5.1,2.07-2.8,5.32,4Z" transform="translate(0 -0.45)"/><path class="cls-1" d="M71.69,37,69.9,39.37l5,4.72,1.74-3.38-5-3.76m-.1-.7,5.69,4.31L75,44.91l-5.8-5.48Z" transform="translate(0 -0.45)"/></g><g id="Path_2985" data-name="Path 2985"><path class="cls-8" d="M76.79,61.38l-10-13.29,2-2.32.12-.14-.1-.16-2.66-4.19,5.21-4.57Z" transform="translate(0 -0.45)"/><path class="cls-3" d="M71.28,37.18l-4.74,4.15,2.55,4,.2.31-.25.28L67.16,48.1,76.3,60.31l-5-23.13m.31-.93,5.69,26.2L66.52,48.07l2.15-2.47-2.78-4.36Z" transform="translate(0 -0.45)"/></g><g id="Path_2986" data-name="Path 2986"><path class="cls-8" d="M77.77,61.38l5.36-24.67,5.21,4.57-2.66,4.19-.1.16.12.14,2,2.32Z" transform="translate(0 -0.45)"/><path class="cls-3" d="M83.28,37.18l-5,23.13L87.4,48.1l-1.88-2.17-.25-.28.2-.31,2.55-4-4.74-4.15M83,36.25l5.7,5L85.89,45.6,88,48.07,77.28,62.45Z" transform="translate(0 -0.45)"/></g><path id="Path_2987" data-name="Path 2987" class="cls-13" d="M81.3,27.75a7.73,7.73,0,0,1-8.65,0" transform="translate(0 -0.45)"/><path id="Path_2988" data-name="Path 2988" class="cls-14" d="M80.28,24.73a4.5,4.5,0,0,1,3.21,3.2" transform="translate(0 -0.45)"/><path id="Path_2989" data-name="Path 2989" class="cls-14" d="M73.49,24.73a4.5,4.5,0,0,0-3.21,3.2" transform="translate(0 -0.45)"/></g><path id="Rectangle_1733" data-name="Rectangle 1733" class="cls-4" d="M63.71,140.17H75.65v6.49H57.21A6.49,6.49,0,0,1,63.71,140.17Z" transform="translate(0 -0.45)"/></g></g></g></svg>