<svg id="圖層_1" data-name="圖層 1" xmlns="http://www.w3.org/2000/svg" viewBox="0 0 160 200"><defs><style>.cls-1{opacity:0;}.cls-2{fill:#fff;}.cls-12,.cls-13,.cls-14,.cls-15,.cls-3,.cls-5{fill:none;}.cls-3{stroke:#707070;}.cls-4{fill:#ffda6a;}.cls-13,.cls-5{stroke:#000;}.cls-12,.cls-13,.cls-5{stroke-linecap:round;stroke-linejoin:round;}.cls-5{stroke-width:0.33px;}.cls-6{fill:#f8f8f8;}.cls-7{fill:#424242;}.cls-8{fill:#1e1e1e;}.cls-9{fill:#35a30a;}.cls-10{fill:#ffba00;}.cls-11{fill:#474747;}.cls-12{stroke:#c48000;}.cls-12,.cls-13,.cls-14{stroke-width:0.25px;}.cls-14,.cls-15{stroke:#1e1e1e;stroke-miterlimit:10;}.cls-15{stroke-width:0.5px;}.cls-16{fill:#5e3f3e;}</style></defs><title>Tsai</title><g id="Tsai"><g id="Rectangle_1758" data-name="Rectangle 1758" class="cls-1"><rect class="cls-2" width="160" height="62"/><rect class="cls-3" x="0.5" y="0.5" width="159" height="61"/></g><g id="Group_9031" data-name="Group 9031"><g id="Group_9015" data-name="Group 9015"><g id="Group_9014" data-name="Group 9014"><path id="Path_3010" data-name="Path 3010" class="cls-4" d="M103.38,96.92v-4.8a5,5,0,0,0-1.2-3.3,4,4,0,0,0-3.3-1.3,4.23,4.23,0,0,0-4.4,4,16.85,16.85,0,0,1-1.4,4.5h0a1.27,1.27,0,0,0,.1.6c.1.2.2.3.4.3H94a1.71,1.71,0,0,0,1.6-1.3l.3-.8V101a1.1,1.1,0,1,0,2.2,0h0v-2.7a2.11,2.11,0,0,1,2.4,0,1.13,1.13,0,0,1,1.5-.4c.1.1.2.1.3.2A1.19,1.19,0,0,0,103.38,96.92Z"/><path id="Path_3011" data-name="Path 3011" class="cls-4" d="M97,102.12a1.85,1.85,0,0,0,.7-.2h0a1.1,1.1,0,0,0,2.2,0h0a1,1,0,0,0,1.5-.2,1.45,1.45,0,0,0,.2-.7v-1.3a1,1,0,0,0,1.5-.2,1.45,1.45,0,0,0,.2-.7v-6.7"/><path id="Path_3012" data-name="Path 3012" class="cls-4" d="M103,92.12v6.7a.7.7,0,0,1-1.4,0h0v-3.2a.2.2,0,0,0-.4,0h0v5.3a.7.7,0,0,1-1.4,0h0v-5.3a.22.22,0,0,0-.2-.2c-.1,0-.1.1-.1.2v6.2a.7.7,0,0,1-1.4,0v-6.2a.2.2,0,1,0-.4,0h0v5.3a.68.68,0,0,1-.7.7"/><rect id="Rectangle_1748" data-name="Rectangle 1748" class="cls-4" x="98.08" y="97.02" width="1.8" height="3.3"/></g><line id="Line_69" data-name="Line 69" class="cls-5" x1="97.68" y1="96.12" x2="97.68" y2="101.82"/><line id="Line_70" data-name="Line 70" class="cls-5" x1="99.88" y1="96.12" x2="99.88" y2="101.82"/><line id="Line_71" data-name="Line 71" class="cls-5" x1="101.68" y1="96.12" x2="101.68" y2="99.72"/></g><g id="Group_9017" data-name="Group 9017"><g id="Group_9016" data-name="Group 9016"><path id="Path_3013" data-name="Path 3013" class="cls-4" d="M66.31,98a1.22,1.22,0,0,1,1.6-.1c.1.1.2.2.2.3a1.09,1.09,0,0,1,1.5-.1c.1.1.2.2.2.3a1.85,1.85,0,0,0,.7-.2v2.7a1.1,1.1,0,0,0,2.2,0h0v-6.1l.3.8a1.81,1.81,0,0,0,1.6,1.3H75c.2,0,.3-.2.4-.3a.45.45,0,0,0,0-.5h0a34.71,34.71,0,0,1-1.3-4.6,4.17,4.17,0,0,0-4.4-4,3.88,3.88,0,0,0-3.3,1.4,4.72,4.72,0,0,0-1.2,3.2v4.8A1.11,1.11,0,0,0,66.31,98Z"/><path id="Path_3014" data-name="Path 3014" class="cls-4" d="M71.61,102.12a1.85,1.85,0,0,1-.7-.2h0a1.1,1.1,0,1,1-2.2,0h0a1,1,0,0,1-1.5-.2,1.45,1.45,0,0,1-.2-.7v-1.3a1,1,0,0,1-1.5-.2.91.91,0,0,1-.3-.7v-6.7"/><path id="Path_3015" data-name="Path 3015" class="cls-4" d="M65.61,92.12v6.7a.7.7,0,0,0,1.4,0h0v-3.2a.2.2,0,0,1,.4,0h0v5.3a.7.7,0,0,0,1.4,0h0v-5.3a.2.2,0,1,1,.4,0h0v6.2a.67.67,0,0,0,.6.7.75.75,0,0,0,.7-.7h0v-6.2a.2.2,0,0,1,.4,0h0v5.3a.68.68,0,0,0,.7.7"/><rect id="Rectangle_1749" data-name="Rectangle 1749" class="cls-4" x="68.71" y="97.02" width="1.8" height="3.3"/></g><line id="Line_72" data-name="Line 72" class="cls-5" x1="70.91" y1="96.12" x2="70.91" y2="101.82"/><line id="Line_73" data-name="Line 73" class="cls-5" x1="68.71" y1="96.12" x2="68.71" y2="101.82"/><line id="Line_74" data-name="Line 74" class="cls-5" x1="67.01" y1="96.12" x2="67.01" y2="99.72"/></g><g id="Group_9018" data-name="Group 9018"><g id="Path_2801" data-name="Path 2801"><path id="Path_2863" data-name="Path 2863" class="cls-2" d="M31.57,134.08h96.9l31.4,23.2H.17Z"/></g><g id="Rectangle_1361" data-name="Rectangle 1361"><rect id="Rectangle_1396" data-name="Rectangle 1396" class="cls-6" x="0.17" y="156.93" width="159.7" height="4.1"/></g><g id="Group_8257" data-name="Group 8257"><path id="Path_2864" data-name="Path 2864" class="cls-7" d="M159.8,161.21H.2A.22.22,0,0,1,0,161H0v-4a.35.35,0,0,1,.1-.2l31.3-22.9h97.1l31.3,22.9c.1,0,.1.1.1.2v4c.1.1,0,.2-.1.2ZM.3,160.91H159.6v-3.8l-31.2-22.9H31.6L.3,157.11Z"/></g><g id="Group_8258" data-name="Group 8258"><path id="Path_2865" data-name="Path 2865" class="cls-7" d="M129.54,157.06H3.44c-.1,0-.2,0-.2-.1h0a.22.22,0,0,1,.2-.2h126.1a.22.22,0,0,1,.2.2h0c-.1.1-.1.1-.2.1Z"/></g><g id="Group_8259" data-name="Group 8259"><path id="Path_2866" data-name="Path 2866" class="cls-7" d="M157.07,157.06h-24.8c-.1,0-.2,0-.2-.1a.22.22,0,0,1,.2-.2h24.8a.22.22,0,0,1,.2.2h0c0,.1-.1.1-.2.1Z"/></g></g><rect id="Rectangle_1750" data-name="Rectangle 1750" class="cls-8" x="72.1" y="94.6" width="11.8" height="46.2"/><rect id="Rectangle_1751" data-name="Rectangle 1751" class="cls-8" x="85.1" y="94.6" width="11.8" height="46.2"/><g id="Group_9020" data-name="Group 9020"><g id="Group_9019" data-name="Group 9019"><path id="Rectangle_1752" data-name="Rectangle 1752" class="cls-8" d="M83.07,45h2.5a18,18,0,0,1,18,18h0v29.3H65.07V63a18.05,18.05,0,0,1,18-18Z"/></g></g><path id="Path_3016" data-name="Path 3016" class="cls-7" d="M83.5,44.2A16.13,16.13,0,0,0,68.4,60.4V94.6H99.9V59.9A15.83,15.83,0,0,0,84.1,44.1C84,44.2,83.8,44.2,83.5,44.2Z"/><path id="Path_3017" data-name="Path 3017" class="cls-8" d="M100.8,32.9s0,5.5-2.5,8a14.92,14.92,0,0,1-6.7,3.2,24.09,24.09,0,0,1-3.7.7c-.2,0-3.1.3-3.1.2V16.8Z"/><path id="Path_3018" data-name="Path 3018" class="cls-9" d="M78.8,48.6H90l-5.7,18Z"/><path id="Path_3019" data-name="Path 3019" class="cls-8" d="M67.9,32.8s-.4,5.7,2.1,8.1a14.92,14.92,0,0,0,6.7,3.2,24.09,24.09,0,0,0,3.7.7c.2,0,3.1.3,3.1.2V16.8Z"/><path id="Rectangle_1753" data-name="Rectangle 1753" class="cls-10" d="M79.2,37.5H89.3v8.8a4.91,4.91,0,0,1-4.9,4.9h-.3a4.91,4.91,0,0,1-4.9-4.9h0V37.5Z"/><path id="Path_3020" data-name="Path 3020" class="cls-4" d="M84.3,13.5h0c-6.7,0-12.1,5.2-12.1,11.5v5.8A11.65,11.65,0,0,0,80,41.6,8.56,8.56,0,0,0,84.6,43h0A8.2,8.2,0,0,0,90,41a11.57,11.57,0,0,0,6.5-10.2V25C96.4,18.7,90.9,13.5,84.3,13.5Z"/><path id="Path_3021" data-name="Path 3021" class="cls-8" d="M89.5,16.3s1.6-1,4.2,2.9c2.3,3.4,2.6,9.5,2.6,9.5l4.4,4.2s-.3-14.2-5.6-18.6c-3.3-2.8-5.7-2.1-5.7-2.1Z"/><path id="Path_3022" data-name="Path 3022" class="cls-8" d="M89.5,12.2a28,28,0,0,1,0,4.1c0-.4-1-1.2-1.7-1.5a5.58,5.58,0,0,0-4.7.4,6.75,6.75,0,0,0-3,4,27.28,27.28,0,0,1-2.8,6,62.16,62.16,0,0,0-3.5,5.4c-1.3,2.3-2.3,5.3.3,7.2a5.31,5.31,0,0,0,1.7.8c.3.1,1.3.4,1.6.2a5.7,5.7,0,0,1-6.8.3,8.94,8.94,0,0,1-4.2-7.6,23.22,23.22,0,0,1,3-10.7c2.4-4,5.4-8,10.7-10C82.9,9.7,87.2,9.4,89.5,12.2Z"/><g id="Group_9021" data-name="Group 9021"><path id="Path_3023" data-name="Path 3023" class="cls-11" d="M86.07,25.84l5.1-.4,2.3.9-2.3-1.9-4.5.4Z"/><path id="Path_3024" data-name="Path 3024" d="M87.87,29.54a1.67,1.67,0,0,1,1.7-1.6,1.58,1.58,0,0,1,1.6,1.6"/><line id="Line_75" data-name="Line 75" class="cls-12" x1="91.87" y1="29.54" x2="93.17" y2="29.54"/></g><g id="Group_9022" data-name="Group 9022"><path id="Path_3025" data-name="Path 3025" class="cls-11" d="M82.48,25.84l-5.1-.4-2.3.9,2.3-1.9,4.4.5Z"/><path id="Path_3026" data-name="Path 3026" d="M77.58,29.54a1.6,1.6,0,1,1,3.2,0"/><line id="Line_76" data-name="Line 76" class="cls-12" x1="75.68" y1="29.54" x2="76.88" y2="29.54"/></g><path id="Path_3027" data-name="Path 3027" class="cls-8" d="M79.2,43.8l5.1,23.4L74.7,54.3l1.9-2.2-2.5-3.9Z"/><path id="Path_3028" data-name="Path 3028" class="cls-8" d="M89.4,43.8,84.3,67.2l9.6-12.9L92,52.1l2.5-3.9Z"/><g id="Group_9026" data-name="Group 9026"><path id="Path_3029" data-name="Path 3029" class="cls-13" d="M87.6,35.75a5.9,5.9,0,0,1-6.5,0"/><g id="Group_9024" data-name="Group 9024"><g id="Group_9023" data-name="Group 9023"><path id="Rectangle_1754" data-name="Rectangle 1754" class="cls-10" d="M84.31,28.41h0a.92.92,0,0,1,1,.9v3.8a.9.9,0,0,1-.9.9h-.1a.9.9,0,0,1-.9-.9v-3.8A.9.9,0,0,1,84.31,28.41Z"/></g><path id="Rectangle_1755" data-name="Rectangle 1755" class="cls-10" d="M83.1,31.11h2.5a1,1,0,0,1,1,1v.1a1,1,0,0,1-1,1H83.1a1,1,0,0,1-1-1h0A1.1,1.1,0,0,1,83.1,31.11Z"/></g><g id="Group_9025" data-name="Group 9025"><path id="Path_3030" data-name="Path 3030" class="cls-14" d="M85.8,28.15s.7-1.2,4.1-1c3.9.2,4.4,1,4.4,1.3a2.82,2.82,0,0,1-.4,2,6.28,6.28,0,0,1-4,1.4,5.29,5.29,0,0,1-3.2-.8C86.1,30.55,85.2,29,85.8,28.15Z"/><path id="Path_3031" data-name="Path 3031" class="cls-14" d="M82.9,28.15s-.7-1.2-4.1-1c-3.8.2-4.4,1-4.4,1.3a2.82,2.82,0,0,0,.4,2,6.28,6.28,0,0,0,4,1.4,5.29,5.29,0,0,0,3.2-.8C82.6,30.55,83.6,29,82.9,28.15Z"/><path id="Path_3032" data-name="Path 3032" class="cls-15" d="M83.1,29a3.58,3.58,0,0,1,2.5,0"/></g></g><path id="Rectangle_1756" data-name="Rectangle 1756" class="cls-16" d="M102.3,146.7H85.7v-5.8H96.6a5.59,5.59,0,0,1,5.6,5.6v.2Z"/><path id="Rectangle_1757" data-name="Rectangle 1757" class="cls-16" d="M72.4,140.8H83.3v5.8H66.7v-.2A5.61,5.61,0,0,1,72.4,140.8Z"/></g></g></svg>